<svg width="64" height="64" viewBox="0 0 64 64" fill="none" xmlns="http://www.w3.org/2000/svg">
<path fill-rule="evenodd" clip-rule="evenodd" d="M14.8432 11.6406C14.9752 9.30362 15.5332 8.28663 17.1352 7.47063C18.8582 6.59163 21.5752 7.00062 24.7732 8.61962C26.1502 9.31762 26.2902 9.33163 28.7042 9.02163C31.9122 8.61063 36.0422 8.61162 39.0032 9.02562C41.2422 9.33862 41.3892 9.32262 42.7702 8.62362C47.3092 6.32562 50.8922 6.47564 52.1892 9.01864C52.8372 10.2876 52.9572 13.5816 52.4552 16.2986C52.1772 17.8046 52.2062 17.9926 52.8772 18.9816C57.5962 25.9356 54.1962 37.2086 46.1092 41.4156C45.4902 41.7376 44.9692 41.9366 44.5442 42.0986C43.2392 42.5966 42.8432 42.7486 43.3232 45.0416C43.5542 46.1446 43.8322 48.8876 43.9422 51.1376C44.1402 55.2036 44.1372 55.2326 43.4242 56.0616C42.4532 57.1896 41.0542 57.2096 40.1062 56.1066C39.4882 55.3876 39.4272 55.0486 39.4272 52.2746C39.4272 48.1756 38.9782 45.4516 37.9162 43.1166C36.6542 40.3386 37.5892 39.3026 40.4762 38.6816C44.4892 37.8186 47.6222 35.3426 49.3692 31.6546C51.0302 28.1496 51.2802 23.3056 48.2782 20.3586C47.4242 19.3436 47.3652 18.4246 47.9742 15.6536C48.2022 14.6176 48.3932 13.2816 48.3992 12.6836C48.4082 11.7396 48.3222 11.5966 47.7422 11.5966C47.3752 11.5966 45.9732 12.1306 44.6272 12.7826L42.4792 13.8236C42.2842 13.9186 42.0652 13.9546 41.8502 13.9296C36.3872 13.3026 31.1962 13.2926 25.7062 13.9316C25.4902 13.9566 25.2702 13.9206 25.0742 13.8256L22.9272 12.7836C21.5812 12.1306 20.1792 11.5956 19.8122 11.5956C18.9642 11.5956 18.9512 12.2216 19.7242 15.9416C20.1962 18.2136 20.5142 18.7196 19.1492 20.5366C17.1032 23.2596 16.5922 26.6406 17.6892 30.1936C19.0722 34.6706 22.4592 37.6956 27.2202 38.7046C30.0902 39.3126 30.8402 40.1066 29.7442 43.3976C28.8812 45.9876 28.3362 46.6556 27.0822 46.6556C25.3952 46.6556 24.3382 45.1946 24.9202 43.6656C25.1762 42.9916 25.1002 42.9196 23.5202 42.3436C18.6962 40.5846 15.0062 36.6426 13.3192 31.4446C12.0152 27.4276 12.5892 22.1976 14.6812 19.0376C15.3932 17.9616 15.4042 17.8706 15.0722 15.8096C14.8842 14.6436 14.7822 12.7666 14.8462 11.6376L14.8432 11.6406ZM13.1582 41.0296C13.4012 41.3946 13.7332 41.7546 14.2402 42.2616C14.3142 42.3356 14.3932 42.4136 14.4752 42.4956C14.9142 42.9316 15.4542 43.4666 15.9762 44.0786C17.1562 45.4636 18.2612 47.2506 18.9462 49.9376C19.3902 50.0226 19.9962 50.0916 20.7342 50.1406C22.2632 50.2416 23.9982 50.2366 25.3302 50.2326C25.5752 50.2316 25.8072 50.2306 26.0202 50.2306C27.2732 50.2306 28.2892 51.2466 28.2892 52.4996V54.7686C28.2892 56.0216 27.2732 57.0376 26.0202 57.0376C24.7672 57.0376 23.7522 56.0226 23.7512 54.7696C22.6982 54.7636 21.5202 54.7396 20.4342 54.6676C19.4442 54.6016 18.4012 54.4896 17.5412 54.2726C17.1212 54.1666 16.6102 54.0036 16.1432 53.7276C15.7122 53.4726 14.9352 52.8906 14.7182 51.8086C14.2322 49.3806 13.3782 48.0256 12.5212 47.0206C12.1342 46.5656 11.7482 46.1826 11.3112 45.7486C11.2202 45.6576 11.1262 45.5656 11.0302 45.4686C10.5092 44.9476 9.89519 44.3146 9.38119 43.5446C8.68619 42.5016 8.96819 41.0926 10.0102 40.3976C11.0532 39.7026 12.4622 39.9846 13.1572 41.0266L13.1582 41.0296Z" fill="white"/>
</svg>
