<svg width="64" height="64" viewBox="0 0 64 64" fill="none" xmlns="http://www.w3.org/2000/svg">
<path fill-rule="evenodd" clip-rule="evenodd" d="M15.049 4C8.947 4 4 8.94701 4 15.049V48.196C4 54.298 8.947 59.245 15.049 59.245H48.196C54.298 59.245 59.245 54.298 59.245 48.196V15.049C59.245 8.94701 54.298 4 48.196 4H15.049ZM9.524 15.049C9.524 11.998 11.997 9.52402 15.049 9.52402H48.196C51.247 9.52402 53.721 11.997 53.721 15.049V48.196C53.721 51.247 51.248 53.721 48.196 53.721H15.049C11.998 53.721 9.524 51.248 9.524 48.196V15.049ZM23.335 28.86C23.335 27.334 22.098 26.098 20.573 26.098C19.047 26.098 17.811 27.335 17.811 28.86V45.434C17.811 46.96 19.048 48.196 20.573 48.196C22.099 48.196 23.335 46.959 23.335 45.434V28.86ZM24.716 19.192C24.716 21.48 22.861 23.335 20.573 23.335C18.285 23.335 16.43 21.48 16.43 19.192C16.43 16.904 18.285 15.049 20.573 15.049C22.861 15.049 24.716 16.904 24.716 19.192ZM31.622 26.098C32.56 26.098 33.388 26.565 33.888 27.28C35.304 26.513 36.88 26.098 38.528 26.098C44.493 26.098 48.196 31.418 48.196 35.963V45.434C48.196 46.96 46.959 48.196 45.434 48.196C43.908 48.196 42.672 46.959 42.672 45.434V35.963C42.672 33.841 40.851 31.622 38.529 31.622C37.081 31.622 35.483 32.409 34.386 34.282V45.433C34.386 46.959 33.149 48.195 31.624 48.195C30.098 48.195 28.862 46.958 28.862 45.433V28.859C28.862 27.333 30.099 26.097 31.624 26.097L31.622 26.098Z" fill="white"/>
</svg>
