<svg width="64" height="64" viewBox="0 0 64 64" fill="none" xmlns="http://www.w3.org/2000/svg">
<path d="M52.882 44.787L38.274 31.592M25.708 31.592L11.1 44.787M10 20.597L27.955 33.166C29.409 34.184 30.136 34.693 30.927 34.89C31.625 35.064 32.356 35.064 33.054 34.89C33.845 34.693 34.572 34.184 36.026 33.166L53.981 20.597M20.555 49.185H43.426C47.121 49.185 48.968 49.185 50.38 48.466C51.621 47.834 52.631 46.824 53.263 45.583C53.982 44.172 53.982 42.324 53.982 38.629V24.555C53.982 20.86 53.982 19.013 53.263 17.602C52.631 16.361 51.621 15.351 50.38 14.719C48.969 14 47.121 14 43.426 14H20.555C16.86 14 15.013 14 13.602 14.719C12.361 15.352 11.351 16.361 10.719 17.602C10 19.013 10 20.861 10 24.555V38.629C10 42.324 10 44.171 10.719 45.583C11.352 46.824 12.361 47.834 13.602 48.466C15.013 49.185 16.861 49.185 20.555 49.185Z" stroke="white" stroke-width="4.4" stroke-linecap="round" stroke-linejoin="round"/>
</svg>
