<svg width="64" height="64" viewBox="0 0 64 64" fill="none" xmlns="http://www.w3.org/2000/svg">
<path d="M9 15.366C9 37.163 26.67 54.834 48.468 54.834C49.451 54.834 50.426 54.798 51.392 54.727C52.5 54.646 53.054 54.605 53.558 54.315C53.976 54.075 54.372 53.648 54.581 53.214C54.834 52.69 54.834 52.079 54.834 50.856V43.682C54.834 42.654 54.834 42.14 54.665 41.699C54.516 41.31 54.273 40.963 53.958 40.69C53.602 40.38 53.118 40.205 52.152 39.853L43.987 36.884C42.863 36.475 42.301 36.271 41.767 36.305C41.297 36.336 40.844 36.496 40.46 36.769C40.024 37.078 39.716 37.591 39.101 38.617L37.01 42.102C30.263 39.046 24.793 33.569 21.732 26.824L25.217 24.733C26.243 24.118 26.756 23.81 27.065 23.374C27.337 22.99 27.498 22.537 27.529 22.067C27.564 21.534 27.359 20.972 26.95 19.848L23.981 11.682C23.63 10.716 23.454 10.233 23.144 9.876C22.871 9.561 22.524 9.318 22.135 9.169C21.694 9 21.18 9 20.152 9H12.978C11.755 9 11.144 9 10.62 9.253C10.186 9.462 9.76 9.858 9.519 10.276C9.229 10.78 9.188 11.334 9.107 12.442C9.036 13.407 9 14.382 9 15.366Z" stroke="white" stroke-width="5.09" stroke-linecap="round" stroke-linejoin="round"/>
</svg>
