<svg width="64" height="64" viewBox="0 0 64 64" fill="none" xmlns="http://www.w3.org/2000/svg">
<path d="M52.022 15.167H28.187V14.969C28.209 14.859 28.209 14.728 28.209 14.618V12.116C28.209 10.404 26.804 9 25.093 9H9.116C7.404 9 6 10.405 6 12.116V48.877C6 52.279 8.765 55.022 12.167 55.044H52.023C55.425 55.044 58.19 52.279 58.19 48.877V21.333C58.19 17.931 55.425 15.166 52.023 15.166L52.022 15.167ZM52.022 50.941H12.166C11.025 50.919 10.125 50.019 10.103 48.878V21.356C10.125 20.215 11.025 19.315 12.166 19.293H52.022C53.163 19.315 54.063 20.215 54.085 21.356V48.878C54.063 50.019 53.163 50.919 52.022 50.941ZM41.356 27.502C41.356 25.044 43.353 23.025 45.833 23.025C48.313 23.025 50.31 25.022 50.31 27.502C50.31 29.96 48.313 31.979 45.833 31.979H45.811C43.331 31.979 41.356 29.96 41.356 27.502ZM38.854 36.632L50.859 48.154H12.891L24.084 25.395L31.502 41.921L38.854 36.632Z" fill="white"/>
</svg>
