<svg width="64" height="64" viewBox="0 0 64 64" fill="none" xmlns="http://www.w3.org/2000/svg">
<path fill-rule="evenodd" clip-rule="evenodd" d="M56.5712 46.096C57.5422 51.564 53.6562 56.723 48.3602 56.723C46.4942 56.723 44.7782 55.718 43.7882 54.086L41.9402 51.053C40.9762 49.471 39.5732 48.436 38.4782 48.436H25.2422C24.1482 48.436 22.7442 49.471 21.7802 51.053L19.9322 54.085C18.9382 55.718 17.2242 56.722 15.3602 56.722C10.0642 56.722 6.17823 51.563 7.14923 46.094L9.58723 32.376C10.6892 26.164 15.7262 21.621 21.6542 21.621H22.5862C23.9532 21.621 25.2812 22.061 26.3992 22.877C27.0602 23.358 27.5252 23.574 27.7762 23.574H29.7892V15.287C29.7892 12.28 32.0062 9.776 34.9332 9.776C37.8572 9.776 40.1472 12.282 40.1472 15.287C40.1472 15.859 40.6112 16.323 41.1832 16.323C41.7552 16.323 42.2192 15.859 42.2192 15.287V9.07201C42.2192 7.92801 43.1472 7 44.2912 7C45.4352 7 46.3632 7.92801 46.3632 9.07201V15.287C46.3632 18.148 44.0442 20.466 41.1842 20.466C38.3242 20.466 36.0052 18.148 36.0052 15.287C36.0052 14.492 35.4822 13.92 34.9342 13.92C34.4152 13.92 33.9332 14.464 33.9332 15.287V23.574H35.9462C36.1972 23.574 36.6622 23.358 37.3182 22.881C38.4372 22.062 39.7682 21.621 41.1362 21.621H42.0682C47.9952 21.621 53.0302 26.163 54.1352 32.375L56.5732 46.094L56.5712 46.096ZM48.3602 52.58C50.9702 52.58 53.0292 49.846 52.4922 46.821L50.0542 33.103C49.2902 28.808 45.9192 25.767 42.0672 25.767H41.1352C40.6532 25.767 40.1782 25.924 39.7602 26.23C38.4492 27.184 37.2972 27.72 35.9452 27.72H27.7762C26.4252 27.72 25.2722 27.184 23.9582 26.227C23.5422 25.923 23.0682 25.766 22.5862 25.766H21.6542C17.8012 25.766 14.4292 28.808 13.6672 33.102L11.2292 46.82C10.6922 49.846 12.7512 52.58 15.3612 52.58C15.7512 52.58 16.1382 52.353 16.3952 51.931L18.2432 48.898C19.8862 46.201 22.4722 44.293 25.2432 44.293H38.4792C41.2502 44.293 43.8362 46.201 45.4792 48.898L47.3292 51.934C47.5832 52.353 47.9702 52.58 48.3602 52.58ZM17.3582 33.935C18.5022 33.935 19.4302 34.863 19.4302 36.007C19.4302 37.151 18.5022 38.079 17.3582 38.079C16.2142 38.079 15.2862 37.151 15.2862 36.007C15.2862 34.863 16.2142 33.935 17.3582 33.935ZM46.3622 33.935C47.5062 33.935 48.4342 34.863 48.4342 36.007C48.4342 37.151 47.5062 38.079 46.3622 38.079H44.2902V40.151C44.2902 41.295 43.3622 42.223 42.2182 42.223C41.0742 42.223 40.1462 41.295 40.1462 40.151V38.079H38.0742C36.9302 38.079 36.0022 37.151 36.0022 36.007C36.0022 34.863 36.9302 33.935 38.0742 33.935H40.1462V31.863C40.1462 30.719 41.0742 29.791 42.2182 29.791C43.3622 29.791 44.2902 30.719 44.2902 31.863V33.935H46.3622ZM21.5022 38.078C22.6462 38.078 23.5742 39.006 23.5742 40.15C23.5742 41.294 22.6462 42.222 21.5022 42.222C20.3582 42.222 19.4302 41.294 19.4302 40.15C19.4302 39.006 20.3582 38.078 21.5022 38.078ZM21.5022 33.935C20.3582 33.935 19.4302 33.007 19.4302 31.863C19.4302 30.719 20.3582 29.791 21.5022 29.791C22.6462 29.791 23.5742 30.719 23.5742 31.863C23.5742 33.007 22.6462 33.935 21.5022 33.935ZM25.6452 33.935C26.7892 33.935 27.7172 34.863 27.7172 36.007C27.7172 37.151 26.7892 38.079 25.6452 38.079C24.5012 38.079 23.5732 37.151 23.5732 36.007C23.5732 34.863 24.5012 33.935 25.6452 33.935Z" fill="white"/>
</svg>
